<?xml version="1.0" encoding="UTF-8"?>
<svg version="1.1" xmlns="http://www.w3.org/2000/svg" width="240" height="240">
<path d="M0 0 C79.2 0 158.4 0 240 0 C240 79.2 240 158.4 240 240 C160.8 240 81.6 240 0 240 C0 160.8 0 81.6 0 0 Z " fill="#F1F2F2" transform="translate(0,0)"/>
<path d="M0 0 C6.05860224 1.25204039 10.67160834 6.60689585 14.87109375 10.8359375 C15.78347809 11.74545166 15.78347809 11.74545166 16.71429443 12.67333984 C17.99069872 13.94839032 19.26460967 15.22594121 20.53613281 16.50585938 C22.4815208 18.46199536 24.43739955 20.40718404 26.39453125 22.3515625 C27.63736083 23.59571309 28.87957019 24.84048363 30.12109375 26.0859375 C30.99607513 26.95484619 30.99607513 26.95484619 31.88873291 27.84130859 C37.11211133 33.12554832 37.11211133 33.12554832 38.23046875 36.4609375 C38.0876035 40.46116437 37.84775438 42.70426479 35.29296875 45.8359375 C31.54654917 48.78766202 28.99062917 48.85761754 24.23046875 48.4609375 C15.29623398 43.89455084 7.95022745 35.38689748 1.3359375 28.015625 C-0.64617792 26.24923996 -0.64617792 26.24923996 -3.09765625 26.359375 C-6.94245249 27.94451029 -9.64392992 30.44128721 -12.70703125 33.2109375 C-13.90334627 34.26856811 -15.09995818 35.325863 -16.296875 36.3828125 C-16.8729248 36.90423828 -17.44897461 37.42566406 -18.04248047 37.96289062 C-19.76953125 39.4609375 -19.76953125 39.4609375 -21.54736328 40.75585938 C-24.2687197 42.7527455 -25.6537538 43.8382485 -26.28320312 47.22363281 C-25.58167929 51.64483342 -23.22865878 53.77557121 -20.109375 56.7421875 C-19.5266835 57.31876099 -18.943992 57.89533447 -18.34364319 58.48937988 C-16.47839142 60.32774057 -14.59312153 62.1439886 -12.70703125 63.9609375 C-11.46417709 65.18225425 -10.22262567 66.40489823 -8.98242188 67.62890625 C-3.89462712 72.62410805 1.19091732 77.52350873 6.69895935 82.0579834 C10.50406052 85.54368338 12.96199909 89.73663067 13.46875 94.87890625 C13.7621147 105.82604147 9.96297364 111.1231296 2.625 118.984375 C-0.79575433 122.52231667 -4.24670549 126.02450257 -7.76953125 129.4609375 C-6.40470597 132.73002931 -5.14795222 134.17322311 -2.09375 135.94140625 C-0.98386719 136.59774048 -0.98386719 136.59774048 0.1484375 137.26733398 C0.93863281 137.72309814 1.72882813 138.1788623 2.54296875 138.6484375 C4.17614139 139.61960597 5.80763995 140.59359489 7.4375 141.5703125 C8.65107178 142.29637695 8.65107178 142.29637695 9.88916016 143.03710938 C13.23142576 145.06965296 16.49799316 147.19619946 19.73046875 149.3984375 C20.75140625 150.08808594 21.77234375 150.77773437 22.82421875 151.48828125 C25.21152005 153.44540326 26.25098512 154.57344242 27.23046875 157.4609375 C27.73872057 163.86491045 27.02859888 167.00869903 22.93334961 172.0612793 C19.98402483 174.48543399 17.00791998 174.0638784 13.32470703 173.95556641 C7.60592827 173.04139205 3.06025877 170.11782618 -1.83203125 167.1484375 C-2.91387695 166.51486328 -3.99572266 165.88128906 -5.11035156 165.22851562 C-7.30096775 163.93991787 -9.48517732 162.64036219 -11.66259766 161.32958984 C-14.49968643 159.62323455 -17.35404539 157.95237857 -20.21875 156.29296875 C-21.82019536 155.35096991 -23.42053609 154.40708947 -25.01953125 153.4609375 C-26.09859741 152.83191528 -26.09859741 152.83191528 -27.19946289 152.19018555 C-32.22835455 149.13474093 -36.54155743 145.85625683 -38.6171875 140.1171875 C-39.00491168 136.22584668 -39.0261628 134.00767428 -37.33203125 130.3984375 C-36.48640625 129.4290625 -35.64078125 128.4596875 -34.76953125 127.4609375 C-34.30160156 126.9040625 -33.83367187 126.3471875 -33.3515625 125.7734375 C-28.05239449 119.95284106 -21.62996365 115.59385456 -15.20458984 111.11694336 C-7.60032465 106.29273838 -7.60032465 106.29273838 -3.0859375 98.96484375 C-4.11072773 95.21118354 -6.68673746 93.5874021 -9.70703125 91.3984375 C-10.32658691 90.93091064 -10.94614258 90.46338379 -11.58447266 89.98168945 C-18.52230187 84.79164299 -25.63336027 79.82890958 -32.76074219 74.90380859 C-34.16165292 73.89756377 -35.5332204 72.84973881 -36.87988281 71.77197266 C-37.56791992 71.22202637 -38.25595703 70.67208008 -38.96484375 70.10546875 C-39.57602051 69.59991455 -40.18719727 69.09436035 -40.81689453 68.57348633 C-43.32409384 67.14496579 -44.9261408 67.10982709 -47.76953125 67.4609375 C-50.32417094 69.59026547 -50.32417094 69.59026547 -52.64453125 72.4609375 C-53.07797852 72.96206055 -53.51142578 73.46318359 -53.95800781 73.97949219 C-55.23946075 75.46392879 -56.50476949 76.96225429 -57.76953125 78.4609375 C-59.01710223 79.87974372 -60.26677138 81.2967108 -61.51953125 82.7109375 C-63.12962773 84.54997543 -64.71564294 86.39411031 -66.25 88.296875 C-70.47303136 93.48225935 -75.31895519 98.31074548 -81.76953125 100.4609375 C-87.63044344 101.01385374 -90.11046205 99.93622718 -94.76953125 96.4609375 C-96.99580272 94.49118754 -99.0975753 92.41383749 -101.19140625 90.3046875 C-101.77746643 89.72054077 -102.36352661 89.13639404 -102.96734619 88.5345459 C-104.19667186 87.30657362 -105.42350606 86.07610253 -106.64794922 84.84326172 C-108.52091075 82.95955008 -110.40435754 81.08679765 -112.2890625 79.21484375 C-113.4863192 78.01626606 -114.68295567 76.81706845 -115.87890625 75.6171875 C-116.44035339 75.05978882 -117.00180054 74.50239014 -117.58026123 73.92810059 C-121.45519789 70.00627943 -123.54610379 67.50902253 -124.14453125 62.0234375 C-123.70831487 57.87938186 -122.67822853 56.36963478 -119.76953125 53.4609375 C-116.65064447 51.90149411 -114.22411675 52.17777475 -110.76953125 52.4609375 C-103.06307422 55.94922309 -98.03635375 62.16403714 -92.44140625 68.34570312 C-88.12084983 73.13288991 -88.12084983 73.13288991 -82.16015625 74.78515625 C-78.21405411 73.24399424 -74.96827932 71.39827605 -71.51953125 68.9609375 C-70.86621826 68.51024902 -70.21290527 68.05956055 -69.53979492 67.59521484 C-54.49536838 57.08641659 -42.31882642 44.87307521 -31.23632812 30.35546875 C-28.57983365 26.92431078 -25.82765735 23.57087815 -23.08203125 20.2109375 C-18.64220663 14.78245468 -18.64220663 14.78245468 -14.2734375 9.296875 C-13.57089844 8.40226562 -12.86835938 7.50765625 -12.14453125 6.5859375 C-11.55414063 5.82539062 -10.96375 5.06484375 -10.35546875 4.28125 C-7.20163617 0.66133379 -4.65990828 0.20462671 0 0 Z " fill="#614FA0" transform="translate(158.76953125,36.5390625)"/>
<path d="M0 0 C5.27268726 3.80123965 9.5077375 8.38326387 10.6875 14.9375 C10.76881942 21.26879793 9.3993587 25.82115423 5.6875 30.9375 C0.08432465 35.28281966 -4.42100493 36.42287875 -11.38671875 36.33984375 C-17.08492847 35.55624482 -21.26581344 32.57606619 -24.7578125 28.07421875 C-27.50589661 23.27948459 -28.40486397 18.37082342 -27.3125 12.9375 C-22.34703058 1.18941065 -12.26986062 -3.93561567 0 0 Z " fill="#614EA0" transform="translate(101.3125,47.0625)"/>
</svg>
